<?xml version="1.0" standalone="no"?>
<svg viewBox="0 0 200 200" xmlns="http://www.w3.org/2000/svg">
  <path fill="#F7B081" d="M47.1,-69.2C61.8,-63.8,74.9,-52,81.3,-37.3C87.7,-22.6,87.3,-5.1,83.5,11C79.7,27.2,72.4,41.8,61.6,52C50.7,62.2,36.1,67.8,21,72.8C5.9,77.9,-9.8,82.3,-23.2,78.6C-36.6,74.8,-47.7,62.9,-56.2,50.2C-64.7,37.6,-70.6,24.3,-75.4,9.2C-80.1,-5.9,-83.6,-22.9,-78.9,-37.2C-74.2,-51.6,-61.3,-63.5,-46.8,-68.9C-32.3,-74.4,-16.1,-73.5,0,-73.5C16.2,-73.6,32.4,-74.6,47.1,-69.2Z" transform="translate(100 100)" />
</svg>
