<svg height="512pt" viewBox="-26 0 512 512" width="512pt" xmlns="http://www.w3.org/2000/svg"><path d="m386.171875 144.585938h-175.902344c-4.128906 0-7.476562 3.347656-7.476562 7.476562 0 4.132812 3.347656 7.480469 7.476562 7.480469h89.113281v38.886719h-138.066406v-38.886719h15.386719c4.128906 0 7.476563-3.347657 7.476563-7.480469 0-4.128906-3.347657-7.476562-7.476563-7.476562h-17.878906c-6.871094 0-12.464844 5.589843-12.464844 12.464843v43.871094c0 6.875 5.59375 12.464844 12.464844 12.464844h227.347656c6.875 0 12.464844-5.589844 12.464844-12.464844v-43.871094c0-6.875-5.59375-12.464843-12.464844-12.464843zm-2.492187 53.84375h-69.339844v-38.886719h69.339844zm0 0"/><path d="m185.390625 407.351562c0-4.132812-3.347656-7.480468-7.480469-7.480468h-24.070312c-4.132813 0-7.480469 3.347656-7.480469 7.480468 0 4.132813 3.347656 7.476563 7.480469 7.476563h24.070312c4.132813 0 7.480469-3.347656 7.480469-7.476563zm0 0"/><path d="m203.75 399.871094c-4.128906 0-7.476562 3.347656-7.476562 7.480468 0 4.132813 3.347656 7.476563 7.476562 7.476563h17.023438c4.132812 0 7.480468-3.34375 7.480468-7.476563 0-4.132812-3.347656-7.480468-7.480468-7.480468zm0 0"/><path d="m276.578125 399.871094h-32.074219c-4.132812 0-7.480468 3.347656-7.480468 7.480468 0 4.132813 3.347656 7.476563 7.480468 7.476563h32.074219c4.132813 0 7.480469-3.34375 7.480469-7.476563 0-4.132812-3.347656-7.480468-7.480469-7.480468zm0 0"/><path d="m168.742188 430.761719h-14.902344c-4.132813 0-7.480469 3.347656-7.480469 7.480469 0 4.128906 3.347656 7.476562 7.480469 7.476562h14.902344c4.128906 0 7.476562-3.347656 7.476562-7.476562 0-4.132813-3.347656-7.480469-7.476562-7.480469zm0 0"/><path d="m235.089844 430.761719h-44.53125c-4.132813 0-7.480469 3.347656-7.480469 7.480469 0 4.128906 3.347656 7.476562 7.480469 7.476562h44.53125c4.132812 0 7.480468-3.347656 7.480468-7.476562 0-4.132813-3.347656-7.480469-7.480468-7.480469zm0 0"/><path d="m276.578125 430.761719h-16.039063c-4.128906 0-7.476562 3.347656-7.476562 7.480469 0 4.128906 3.347656 7.476562 7.476562 7.476562h16.039063c4.132813 0 7.480469-3.347656 7.480469-7.476562 0-4.132813-3.347656-7.480469-7.480469-7.480469zm0 0"/><path d="m153.839844 350.992188h37.164062c4.132813 0 7.480469-3.347657 7.480469-7.476563 0-4.132813-3.347656-7.480469-7.480469-7.480469h-37.164062c-4.132813 0-7.480469 3.347656-7.480469 7.480469 0 4.128906 3.347656 7.476563 7.480469 7.476563zm0 0"/><path d="m153.839844 379.910156h76.371094c4.132812 0 7.480468-3.347656 7.480468-7.480468 0-4.128907-3.347656-7.476563-7.480468-7.476563h-76.371094c-4.132813 0-7.480469 3.347656-7.480469 7.476563 0 4.132812 3.347656 7.480468 7.480469 7.480468zm0 0"/><path d="m376.390625 389.425781c-11.875 0-18.414063 5.953125-18.414063 16.757813v17.152344c0 10.804687 6.539063 16.757812 18.414063 16.757812 11.796875 0 18.292969-5.953125 18.292969-16.757812v-17.152344c0-10.804688-6.496094-16.757813-18.292969-16.757813zm5.246094 33.910157c0 3.339843-1.667969 4.894531-5.246094 4.894531-3.5 0-5.128906-1.554688-5.128906-4.894531v-17.152344c0-3.339844 1.628906-4.890625 5.128906-4.890625 3.578125 0 5.246094 1.554687 5.246094 4.890625zm0 0"/><path d="m378.121094 352.355469c0-4.015625-3.90625-6.816407-7.410156-6.816407-2.46875 0-4.558594 1.238282-5.601563 3.316407l-42.585937 86.238281-.046876.105469c-.269531.675781-.582031 1.578125-.582031 2.566406 0 3.238281 2.835938 6.703125 7.058594 6.703125 2.722656 0 5.074219-1.378906 5.953125-3.433594l42.582031-85.878906c.425781-.851562.632813-1.765625.632813-2.800781zm0 0"/><path d="m341.332031 384.179688v-17.152344c0-10.804688-6.5-16.757813-18.296875-16.757813-11.871094 0-18.410156 5.953125-18.410156 16.757813v17.152344c0 10.804687 6.539062 16.757812 18.410156 16.757812 11.796875 0 18.296875-5.953125 18.296875-16.757812zm-23.421875 0v-17.152344c0-3.339844 1.628906-4.894532 5.128906-4.894532 3.578126 0 5.246094 1.554688 5.246094 4.894532v17.152344c0 3.339843-1.667968 4.890624-5.246094 4.890624-3.5 0-5.128906-1.550781-5.128906-4.890624zm0 0"/><path d="m386.171875 228.34375h-227.347656c-6.871094 0-12.464844 5.589844-12.464844 12.464844v43.875c0 6.871094 5.59375 12.464844 12.464844 12.464844h227.347656c6.875 0 12.464844-5.59375 12.464844-12.464844v-43.875c0-6.875-5.59375-12.464844-12.464844-12.464844zm-140.9375 53.847656h-83.917969v-38.890625h83.917969zm138.445313 0h-123.488282v-38.890625h123.488282zm0 0"/><path d="m450.9375 105.4375-105.734375-97.816406c-5.3125-4.914063-12.222656-7.621094-19.460937-7.621094h-313.277344c-6.875 0-12.464844 5.589844-12.464844 12.464844v294.820312c0 4.128906 3.347656 7.476563 7.480469 7.476563 4.128906 0 7.476562-3.347657 7.476562-7.476563v-292.328125h69.902344v482.085938h-69.902344v-155.523438c0-4.132812-3.347656-7.480469-7.476562-7.480469-4.132813 0-7.480469 3.347657-7.480469 7.480469v158.015625c0 6.875 5.589844 12.464844 12.464844 12.464844h419.011718c15.800782 0 28.65625-12.855469 28.65625-28.65625v-356.871094c0-7.960937-3.351562-15.628906-9.195312-21.035156zm-102.988281-74.839844 78.164062 72.507813h-66.949219c-6.183593 0-11.214843-5.03125-11.214843-11.214844zm97.226562 452.746094c0 7.554688-6.144531 13.699219-13.699219 13.699219h-331.660156v-482.085938h225.925782c2.589843 0 5.089843.726563 7.25 2.074219v74.855469c0 14.433593 11.738281 26.171875 26.171874 26.171875h83.101563c1.859375 2.390625 2.910156 5.351562 2.910156 8.414062zm0 0"/><path d="m49.90625 170.363281c14.1875 0 25.726562-11.542969 25.726562-25.726562 0-14.1875-11.539062-25.726563-25.726562-25.726563-14.183594 0-25.726562 11.539063-25.726562 25.726563 0 14.183593 11.542968 25.726562 25.726562 25.726562zm0-36.496093c5.9375 0 10.769531 4.832031 10.769531 10.769531s-4.832031 10.769531-10.769531 10.769531-10.769531-4.832031-10.769531-10.769531 4.832031-10.769531 10.769531-10.769531zm0 0"/><path d="m49.90625 282.488281c14.1875 0 25.726562-11.539062 25.726562-25.726562 0-14.183594-11.539062-25.726563-25.726562-25.726563-14.183594 0-25.726562 11.542969-25.726562 25.726563 0 14.1875 11.542968 25.726562 25.726562 25.726562zm0-36.496093c5.9375 0 10.769531 4.832031 10.769531 10.769531s-4.832031 10.769531-10.769531 10.769531-10.769531-4.832031-10.769531-10.769531 4.832031-10.769531 10.769531-10.769531zm0 0"/><path d="m49.90625 394.617188c14.1875 0 25.726562-11.542969 25.726562-25.726563 0-14.1875-11.539062-25.726563-25.726562-25.726563-14.183594 0-25.726562 11.539063-25.726562 25.726563 0 14.183594 11.542968 25.726563 25.726562 25.726563zm0-36.496094c5.9375 0 10.769531 4.832031 10.769531 10.769531s-4.832031 10.769531-10.769531 10.769531-10.769531-4.832031-10.769531-10.769531 4.832031-10.769531 10.769531-10.769531zm0 0"/></svg>