<svg id="Capa_1" enable-background="new 0 0 513.244 513.244" height="512" viewBox="0 0 513.244 513.244" width="512" xmlns="http://www.w3.org/2000/svg"><g><path d="m203.774 461.134c-4.142 0-7.5 3.358-7.5 7.5v36.396c0 4.142 3.358 7.5 7.5 7.5s7.5-3.358 7.5-7.5v-36.396c0-4.143-3.358-7.5-7.5-7.5z"/><path d="m344.348 438.089-31.147-12.711v-16.833c13.339-14.022 21.552-32.962 21.552-53.796 0-43.081-35.05-78.13-78.131-78.13-17.745 0-34.484 5.817-48.406 16.823-3.25 2.569-3.801 7.286-1.233 10.535 2.569 3.25 7.286 3.801 10.535 1.233 11.248-8.891 24.77-13.591 39.104-13.591 34.811 0 63.131 28.32 63.131 63.13s-28.32 63.13-63.131 63.13c-34.81 0-63.13-28.32-63.13-63.13 0-9.463 2.048-18.569 6.086-27.064 1.778-3.741.188-8.215-3.553-9.994-3.741-1.778-8.215-.188-9.994 3.553-5.002 10.523-7.539 21.795-7.539 33.504 0 21.354 8.619 40.727 22.551 54.844v15.785l-31.146 12.711c-10.876 4.438-17.904 14.897-17.904 26.645v40.297c0 4.142 3.358 7.5 7.5 7.5s7.5-3.358 7.5-7.5v-40.297c0-5.625 3.365-10.631 8.572-12.757l35.813-14.615c2.822-1.151 4.666-3.896 4.666-6.944v-8.928c11.835 7.223 25.729 11.389 40.58 11.389 15.275 0 29.528-4.423 41.579-12.031v9.569c0 3.048 1.845 5.792 4.666 6.944l35.813 14.615c5.207 2.125 8.571 7.132 8.571 12.757v40.297c0 4.142 3.357 7.5 7.5 7.5s7.5-3.358 7.5-7.5v-40.297c-.002-11.746-7.029-22.204-17.905-26.643z"/><path d="m310.469 461.134c-4.143 0-7.5 3.358-7.5 7.5v36.396c0 4.142 3.357 7.5 7.5 7.5s7.5-3.358 7.5-7.5v-36.396c0-4.143-3.357-7.5-7.5-7.5z"/><path d="m196.274 250.721v18.198c0 4.142 3.358 7.5 7.5 7.5s7.5-3.358 7.5-7.5v-18.198c0-4.142-3.358-7.5-7.5-7.5s-7.5 3.358-7.5 7.5z"/><path d="m302.969 250.721v19.052c0 4.142 3.357 7.5 7.5 7.5s7.5-3.358 7.5-7.5v-19.052c0-4.142-3.357-7.5-7.5-7.5s-7.5 3.358-7.5 7.5z"/><path d="m346.271 38.214c0-4.142-3.357-7.5-7.5-7.5h-242.423c-4.142 0-7.5 3.358-7.5 7.5v248.904c0 4.142 3.358 7.5 7.5 7.5h85.82c4.142 0 7.5-3.358 7.5-7.5s-3.358-7.5-7.5-7.5h-15.177v-32.797c0-5.625 3.365-10.631 8.572-12.757l35.813-14.616c2.822-1.151 4.666-3.896 4.666-6.944v-8.746c11.835 7.223 25.729 11.389 40.58 11.389 15.275 0 29.528-4.423 41.579-12.031v9.387c0 3.048 1.845 5.792 4.666 6.944l35.813 14.616c5.207 2.125 8.571 7.132 8.571 12.757v32.797h-16.176c-4.143 0-7.5 3.358-7.5 7.5s3.357 7.5 7.5 7.5h85.819c4.143 0 7.5-3.358 7.5-7.5v-248.903c0-4.142-3.357-7.5-7.5-7.5h-46.162c-4.143 0-7.5 3.358-7.5 7.5s3.357 7.5 7.5 7.5h38.662v7.225c-14.01 19.07-28.834 39.239-44.075 59.962-2.454 3.337-1.738 8.032 1.599 10.486 1.338.984 2.895 1.458 4.438 1.458 2.304 0 4.578-1.058 6.048-3.057 10.928-14.859 21.639-29.428 31.991-43.517v83.68c-12.136 16.5-24.515 33.321-36.938 50.19-2.456 3.335-1.743 8.03 1.592 10.486 1.339.986 2.896 1.461 4.441 1.461 2.303 0 4.575-1.057 6.045-3.053 8.329-11.31 16.632-22.59 24.86-33.772v92.353h-47.144v-32.797c0-11.747-7.027-22.206-17.903-26.645l-31.147-12.711v-16.651c13.339-14.022 21.552-32.962 21.552-53.796 0-43.081-35.05-78.13-78.131-78.13-12.725 0-25.372 3.143-36.575 9.089-3.659 1.942-5.05 6.482-3.108 10.141 1.942 3.66 6.484 5.05 10.141 3.108 9.045-4.8 19.26-7.338 29.542-7.338 34.811 0 63.131 28.32 63.131 63.13s-28.32 63.13-63.131 63.13c-34.81 0-63.13-28.32-63.13-63.13 0-13.373 4.143-26.161 11.98-36.98 2.43-3.354 1.681-8.044-1.674-10.474-3.355-2.431-8.044-1.681-10.474 1.674-9.704 13.396-14.833 29.227-14.833 45.78 0 21.354 8.619 40.727 22.551 54.844v15.603l-31.146 12.711c-10.876 4.438-17.904 14.897-17.904 26.645v32.797h-48.143v-4.964c15.289-20.509 33.74-45.367 54.896-73.957 2.464-3.33 1.762-8.026-1.567-10.49-3.33-2.463-8.026-1.762-10.49 1.567-15.869 21.446-30.209 40.781-42.838 57.762v-83.256c25.28-34.137 55.207-74.671 89.016-120.567h145.907c4.141.003 7.498-3.355 7.498-7.497zm-242.423 102.854v-95.354h70.385c-25.974 35.25-49.56 67.203-70.385 95.354z"/><path d="m216.283 145.99c-3.811 1.623-5.584 6.028-3.961 9.839 7.587 17.811 24.976 29.32 44.3 29.32s36.714-11.509 44.301-29.32c1.623-3.811-.15-8.216-3.961-9.839-3.814-1.625-8.217.151-9.84 3.961-5.227 12.27-17.198 20.198-30.5 20.198-13.301 0-25.273-7.928-30.5-20.198-1.624-3.812-6.029-5.585-9.839-3.961z"/><path d="m241.203 115.922v-7.251c0-4.142-3.358-7.5-7.5-7.5s-7.5 3.358-7.5 7.5v7.251c0 4.142 3.358 7.5 7.5 7.5s7.5-3.358 7.5-7.5z"/><path d="m285.371 115.922v-7.251c0-4.142-3.357-7.5-7.5-7.5s-7.5 3.358-7.5 7.5v7.251c0 4.142 3.357 7.5 7.5 7.5s7.5-3.358 7.5-7.5z"/><path d="m494.375 309.618h-39.98v-290.376c0-10.217-8.312-18.528-18.528-18.528h-358.491c-10.216 0-18.528 8.312-18.528 18.528v290.376h-39.981c-10.403 0-18.867 8.464-18.867 18.867v24.998c0 10.403 8.464 18.867 18.867 18.867h137.629c4.142 0 7.5-3.358 7.5-7.5s-3.358-7.5-7.5-7.5h-137.629c-2.132 0-3.867-1.735-3.867-3.867v-24.998c0-2.132 1.735-3.867 3.867-3.867h144.43c4.142 0 7.5-3.358 7.5-7.5s-3.358-7.5-7.5-7.5h-89.449v-290.376c0-1.945 1.583-3.528 3.528-3.528h358.49c1.945 0 3.528 1.583 3.528 3.528v290.376h-89.448c-4.143 0-7.5 3.358-7.5 7.5s3.357 7.5 7.5 7.5h144.429c2.133 0 3.868 1.735 3.868 3.867v24.998c0 2.132-1.735 3.867-3.868 3.867h-137.627c-4.143 0-7.5 3.358-7.5 7.5s3.357 7.5 7.5 7.5h137.628c10.404 0 18.868-8.464 18.868-18.867v-24.998c0-10.403-8.464-18.867-18.869-18.867z"/></g></svg>