<svg id="Capa_1" enable-background="new 0 0 512 512" height="512" viewBox="0 0 512 512" width="512" xmlns="http://www.w3.org/2000/svg"><g><path d="m232.018 395.034c4.606-4.925 7.434-11.533 7.434-18.792 0-15.186-12.354-27.541-27.541-27.541-15.186 0-27.54 12.354-27.54 27.541 0 7.259 2.828 13.867 7.434 18.792-9.323 6.417-15.45 17.157-15.45 29.305v20.04c0 4.142 3.358 7.5 7.5 7.5s7.5-3.358 7.5-7.5v-20.04c0-11.335 9.222-20.557 20.556-20.557 11.335 0 20.557 9.222 20.557 20.557v20.04c0 4.142 3.358 7.5 7.5 7.5s7.5-3.358 7.5-7.5v-20.04c0-12.149-6.128-22.889-15.45-29.305zm-32.647-18.792c0-6.915 5.625-12.541 12.54-12.541s12.541 5.625 12.541 12.541c0 6.915-5.625 12.54-12.541 12.54-6.914 0-12.54-5.625-12.54-12.54z"/><path d="m39.564 331.635c4.142 0 7.5-3.357 7.5-7.5v-8.014c0-.285.231-.517.516-.517h312.629c4.142 0 7.5-3.357 7.5-7.5 0-4.142-3.358-7.5-7.5-7.5h-80.677v-104.664l26.936-8.979c3.93-1.31 6.053-5.558 4.744-9.487-1.311-3.929-5.558-6.054-9.487-4.743l-30.352 10.117c-9.914 3.305-20.833 3.305-30.746 0l-30.352-10.118c-3.929-1.31-8.177.814-9.487 4.743-1.31 3.93.814 8.177 4.744 9.487l26.936 8.979v104.664h-169.371v-216.95c0-4.705 3.828-8.532 8.532-8.532h368.742c4.705 0 8.532 3.827 8.532 8.532v216.951h-56.629c-4.142 0-7.5 3.358-7.5 7.5 0 4.143 3.358 7.5 7.5 7.5h72.145c.285 0 .516.231.516.517v8.016c0 4.142 3.358 7.5 7.5 7.5s7.5-3.358 7.5-7.5v-8.016c0-8.556-6.96-15.517-15.516-15.517h-.516v-216.951c0-12.976-10.557-23.532-23.532-23.532h-368.742c-12.976 0-23.532 10.557-23.532 23.532v216.951h-.516c-8.556 0-15.516 6.961-15.516 15.517v8.014c-.001 4.142 3.357 7.5 7.499 7.5zm224.968-131.892v36.733h-17.064v-36.733c2.829.378 5.68.58 8.532.58s5.704-.202 8.532-.58zm-17.064 51.732h17.064v49.129h-17.064z"/><path d="m143.84 395.034c4.606-4.925 7.434-11.533 7.434-18.792 0-15.186-12.354-27.541-27.541-27.541s-27.541 12.354-27.541 27.541c0 7.259 2.828 13.867 7.434 18.792-9.323 6.416-15.45 17.156-15.45 29.305v20.04c0 4.142 3.358 7.5 7.5 7.5s7.5-3.358 7.5-7.5v-20.04c0-11.335 9.222-20.557 20.557-20.557s20.557 9.222 20.557 20.557v20.04c0 4.142 3.358 7.5 7.5 7.5s7.5-3.358 7.5-7.5v-20.04c.001-12.149-6.127-22.889-15.45-29.305zm-32.647-18.792c0-6.915 5.625-12.541 12.541-12.541s12.541 5.625 12.541 12.541c0 6.915-5.625 12.54-12.541 12.54s-12.541-5.625-12.541-12.54z"/><path d="m55.663 395.034c4.606-4.925 7.434-11.533 7.434-18.792 0-15.186-12.354-27.541-27.54-27.541s-27.541 12.354-27.541 27.541c0 7.259 2.828 13.867 7.434 18.792-9.323 6.416-15.45 17.156-15.45 29.305v20.04c0 4.142 3.358 7.5 7.5 7.5s7.5-3.358 7.5-7.5v-20.04c0-11.335 9.222-20.557 20.557-20.557 11.334 0 20.556 9.222 20.556 20.557v20.04c0 4.142 3.358 7.5 7.5 7.5s7.5-3.358 7.5-7.5v-20.04c0-12.149-6.127-22.889-15.45-29.305zm-32.647-18.792c0-6.915 5.625-12.541 12.541-12.541 6.915 0 12.54 5.625 12.54 12.541 0 6.915-5.625 12.54-12.54 12.54s-12.541-5.625-12.541-12.54z"/><path d="m496.55 395.034c4.606-4.925 7.434-11.533 7.434-18.792 0-15.186-12.354-27.541-27.541-27.541-15.186 0-27.54 12.354-27.54 27.541 0 7.259 2.828 13.867 7.434 18.792-9.323 6.417-15.45 17.157-15.45 29.305v20.04c0 4.142 3.358 7.5 7.5 7.5s7.5-3.358 7.5-7.5v-20.04c0-11.335 9.222-20.557 20.556-20.557 11.335 0 20.557 9.222 20.557 20.557v20.04c0 4.142 3.358 7.5 7.5 7.5s7.5-3.358 7.5-7.5v-20.04c0-12.149-6.127-22.889-15.45-29.305zm-32.647-18.792c0-6.915 5.625-12.541 12.54-12.541s12.541 5.625 12.541 12.541c0 6.915-5.625 12.54-12.541 12.54-6.914 0-12.54-5.625-12.54-12.54z"/><path d="m408.373 395.034c4.606-4.925 7.434-11.533 7.434-18.792 0-15.186-12.354-27.541-27.541-27.541s-27.541 12.354-27.541 27.541c0 7.259 2.828 13.867 7.434 18.792-9.323 6.416-15.45 17.156-15.45 29.305v20.04c0 4.142 3.358 7.5 7.5 7.5s7.5-3.358 7.5-7.5v-20.04c0-11.335 9.222-20.557 20.557-20.557s20.557 9.222 20.557 20.557v20.04c0 4.142 3.358 7.5 7.5 7.5s7.5-3.358 7.5-7.5v-20.04c0-12.149-6.128-22.889-15.45-29.305zm-32.647-18.792c0-6.915 5.625-12.541 12.541-12.541s12.541 5.625 12.541 12.541c0 6.915-5.625 12.54-12.541 12.54s-12.541-5.625-12.541-12.54z"/><path d="m320.195 395.034c4.606-4.925 7.434-11.533 7.434-18.792 0-15.186-12.354-27.541-27.54-27.541s-27.541 12.354-27.541 27.541c0 7.259 2.828 13.867 7.434 18.792-9.323 6.416-15.45 17.156-15.45 29.305v20.04c0 4.142 3.358 7.5 7.5 7.5s7.5-3.358 7.5-7.5v-20.04c0-11.335 9.222-20.557 20.557-20.557 11.334 0 20.556 9.222 20.556 20.557v20.04c0 4.142 3.358 7.5 7.5 7.5s7.5-3.358 7.5-7.5v-20.04c0-12.149-6.127-22.889-15.45-29.305zm-32.647-18.792c0-6.915 5.625-12.541 12.541-12.541 6.915 0 12.54 5.625 12.54 12.541 0 6.915-5.625 12.54-12.54 12.54s-12.541-5.625-12.541-12.54z"/><path d="m232.468 147.782c0 12.976 10.557 23.532 23.532 23.532s23.532-10.557 23.532-23.532-10.556-23.532-23.532-23.532-23.532 10.557-23.532 23.532zm32.064 0c0 4.705-3.828 8.532-8.532 8.532s-8.532-3.828-8.532-8.532 3.828-8.532 8.532-8.532 8.532 3.828 8.532 8.532z"/></g></svg>